{"title":"A Christmas Carol (1999) DVD RIP (Patrick Stewart)","uid":9339384,"size":876395642,"categoryP":"video","categoryS":"movies","magnet":"?xt=urn:btih:55ec37d5d8dfdd47277a18691d56be4b82009a59&amp;dn=+A+Christmas+Carol+%281999%29+DVD+RIP+%28Patrick+Stewart%29&amp;tr=udp%3A%2F%2Ftracker.openbittorrent.com%3A80&amp;tr=udp%3A%2F%2Fopen.demonii.com%3A1337&amp;tr=udp%3A%2F%2Ftracker.coppersurfer.tk%3A6969&amp;tr=udp%3A%2F%2Fexodus.desync.com%3A6969","seeders":0,"leechers":1,"uploader":"sonicx33","files":-1,"time":1386900718,"description":" &lt;a href=&quot;http://www.imdb.com/title/tt0216621/&quot; rel=&quot;nofollow&quot; target=&quot;_NEW&quot;&gt;http://www.imdb.com/title/tt0216621/&lt;/a&gt;\n\n\n\nStoryline\n\nScrooge is a miserly old businessman in 1840's London. One Christmas Eve he is visited by the ghost of Marley, his dead business partner. Marley foretells that Scrooge will be visited by three spirits, each of whom will attempt to show Scrooge the error of his ways. Will Scrooge reform his ways in time to celebrate Christmas? \n\nFormat                                   : MPEG-4\nFormat profile                           : Base Media / Version 2\nCodec ID                                 : mp42\nFile size                                : 833 MiB\nDuration                                 : 1h 33mn\nOverall bit rate mode                    : Variable\nOverall bit rate                         : 1 242 Kbps\nEncoded date                             : UTC 2013-11-15 12:41:33\nTagged date                              : UTC 2013-11-15 13:32:31\nWriting application                      : HandBrake 0.9.9 2013052900\n\nVideo\nID                                       : 1\nFormat                                   : AVC\nFormat/Info                              : Advanced Video Codec\nFormat profile                           : &lt;a class=&quot;__cf_email__&quot; href=&quot;/cdn-cgi/l/email-protection&quot; data-cfemail=&quot;4a02232d220a067f6478&quot;&gt;[email&amp;#160;protected]&lt;/a&gt;&lt;script data-cfhash='f9e31' type=&quot;text/javascript&quot;&gt;\n/* &lt;![CDATA[ */!function(){try{var t=&quot;currentScript&quot;in document?document.currentScript:function(){for(var t=document.getElementsByTagName(&quot;script&quot;),e=t.length;e--;)if(t[e].getAttribute(&quot;data-cfhash&quot;))return t[e]}();if(t&amp;&amp;t.previousSibling){var e,r,n,i,c=t.previousSibling,a=c.getAttribute(&quot;data-cfemail&quot;);if(a){for(e=&quot;&quot;,r=parseInt(a.substr(0,2),16),n=2;a.length-n;n+=2)i=parseInt(a.substr(n,2),16)^r,e+=String.fromCharCode(i);e=document.createTextNode(e),c.parentNode.replaceChild(e,c)}t.parentNode.removeChild(t);}}catch(u){}}()/* ]]&gt; */&lt;/script&gt;\nFormat settings, CABAC                   : Yes\nFormat settings, ReFrames                : 4 frames\nCodec ID                                 : avc1\nCodec ID/Info                            : Advanced Video Coding\nDuration                                 : 1h 33mn\nBit rate                                 : 1 006 Kbps\nWidth                                    : 720 pixels\nHeight                                   : 480 pixels\nDisplay aspect ratio                     : 4:3\nOriginal display aspect ratio            : 4:3\nFrame rate mode                          : Variable\nFrame rate                               : 23.976 fps\nMinimum frame rate                       : 8.562 fps\nMaximum frame rate                       : 29.970 fps\nStandard                                 : NTSC\nColor space                              : YUV\nChroma subsampling                       : 4:2:0\nBit depth                                : 8 bits\nScan type                                : Progressive\nBits/(Pixel*Frame)                       : 0.121\nStream size                              : 674 MiB (81%)\nWriting library                          : x264 core 130 r2273 b3065e6\nEncoding settings                        : cabac=1 / ref=3 / deblock=1:0:0 / \nEncoded date                             : UTC 2013-11-15 12:41:33\nTagged date                              : UTC 2013-11-15 13:32:31\nColor primaries                          : BT.601 NTSC\nTransfer characteristics                 : BT.709\nMatrix coefficients                      : BT.601\n\nAudio #1\nID                                       : 2\nFormat                                   : AAC\nFormat/Info                              : Advanced Audio Codec\nFormat profile                           : LC\nCodec ID                                 : 40\nDuration                                 : 1h 33mn\nBit rate mode                            : Variable\nBit rate                                 : 112 Kbps\nMaximum bit rate                         : 194 Kbps\nChannel(s)                               : 2 channels\nChannel positions                        : Front: L R\nSampling rate                            : 48.0 KHz\nCompression mode                         : Lossy\nStream size                              : 75.0 MiB (9%)\nLanguage                                 : English\nEncoded date                             : UTC 2013-11-15 12:41:33\nTagged date                              : UTC 2013-11-15 13:32:31\n","torrent":{"xt":"urn:btih:55ec37d5d8dfdd47277a18691d56be4b82009a59","amp;dn":"+A+Christmas+Carol+%281999%29+DVD+RIP+%28Patrick+Stewart%29","amp;tr":["udp%3A%2F%2Ftracker.openbittorrent.com%3A80","udp%3A%2F%2Fopen.demonii.com%3A1337","udp%3A%2F%2Ftracker.coppersurfer.tk%3A6969","udp%3A%2F%2Fexodus.desync.com%3A6969"],"infoHash":"55ec37d5d8dfdd47277a18691d56be4b82009a59","infoHashBuffer":{"type":"Buffer","data":[85,236,55,213,216,223,221,71,39,122,24,105,29,86,190,75,130,0,154,89]},"announce":[],"urlList":[]}}